<?xml version="1.0" standalone="no"?>
<!DOCTYPE svg PUBLIC "-//W3C//DTD SVG 20010904//EN"
 "http://www.w3.org/TR/2001/REC-SVG-20010904/DTD/svg10.dtd">
<svg version="1.0" xmlns="http://www.w3.org/2000/svg"
 width="192.000000pt" height="192.000000pt" viewBox="0 0 192.000000 192.000000"
 preserveAspectRatio="xMidYMid meet">
<metadata>
Created by potrace 1.11, written by Peter Selinger 2001-2013
</metadata>
<g transform="translate(0.000000,192.000000) scale(0.100000,-0.100000)"
fill="#000000" stroke="none">
<path d="M0 960 l0 -960 960 0 960 0 0 960 0 960 -960 0 -960 0 0 -960z m445
205 l0 -40 -85 -1 -85 -2 0 -38 0 -39 83 -3 82 -3 0 -39 0 -40 -85 0 -85 0 0
-40 0 -40 90 0 90 0 0 -40 0 -40 -130 0 -130 0 0 205 0 206 128 -3 127 -3 0
-40z m561 29 c71 -34 124 -118 124 -200 0 -48 -50 -135 -93 -164 -35 -22 -37
-25 -21 -37 10 -7 35 -13 56 -13 45 0 47 -8 10 -43 -34 -33 -65 -34 -120 -4
-146 78 -225 152 -240 224 -21 97 22 189 113 236 39 21 128 21 171 1z m494
-36 c19 -28 40 -53 46 -55 6 -2 28 21 49 52 l38 55 55 0 54 0 -38 -52 c-21
-29 -53 -73 -71 -97 -21 -27 -30 -48 -24 -55 54 -70 138 -195 134 -200 -4 -3
-25 -6 -49 -6 -41 0 -44 2 -94 71 l-52 71 -51 -71 -52 -71 -48 0 c-60 0 -60
-1 29 120 36 50 64 96 61 103 -2 6 -32 49 -66 95 -33 45 -61 84 -61 87 0 3 24
5 53 5 51 -1 52 -1 87 -52z"/>
<path d="M890 1119 c-19 -4 -45 -19 -57 -34 -86 -100 17 -243 139 -192 48 20
72 66 65 125 -8 74 -71 117 -147 101z"/>
</g>
</svg>
